# xmcd
#
# Track frame offsets: 
#        182
#        15455
#        31870
#        46580
#        60162
#        72252
#        91055
#        103792
#        118910
#        128765
#        142832
#        159612
#        173765
#        187060
#        204840
#
# Disc length: 2911 seconds
#
# Revision: 2
# Processed by: cddbd v1.4PL0 Copyright (c) Steve Scherf et al.
# Submitted via: ExactAudioCopy v0.90b3
#
DISCID=b90b5d0f
DTITLE=Anne Murray - Fifteen Of The Best
DYEAR=1900
DGENRE=Country
TTITLE0=Shadows In The Moonlight
TTITLE1=You Needed Me
TTITLE2=Could I Have This Dance
TTITLE3=Feed The Fire
TTITLE4=Blessed Are The Believers
TTITLE5=I Can See Arkansas
TTITLE6=I Just Fall In Love Again
TTITLE7=New Way Out
TTITLE8=Snowbird
TTITLE9=Danny's Song
TTITLE10=Even The Nights Are Better
TTITLE11=A Little Good News
TTITLE12=Just Another Woman In Love
TTITLE13=Broken Hearted Me
TTITLE14=Oh Yes I Do
EXTD=
EXTT0=
EXTT1=
EXTT2=
EXTT3=
EXTT4=
EXTT5=
EXTT6=
EXTT7=
EXTT8=
EXTT9=
EXTT10=
EXTT11=
EXTT12=
EXTT13=
EXTT14=
PLAYORDER=
